<?xml version="1.0" encoding="utf-8"?>
<!-- Generator: Adobe Illustrator 27.8.1, SVG Export Plug-In . SVG Version: 6.00 Build 0)  -->
<svg version="1.1" id="Layer_1" xmlns="http://www.w3.org/2000/svg" xmlns:xlink="http://www.w3.org/1999/xlink" x="0px" y="0px"
	 viewBox="0 0 316 316" style="enable-background:new 0 0 316 316;" xml:space="preserve">
<style type="text/css">
	.st0{fill:#070809;}
</style>
<g>
	<path class="st0" d="M120.78,103.08c-16.38,0-26.12,10.85-29.22,32.54h56.45v-4.32c0.22-8.96-2.05-15.91-6.81-20.83
		C136.44,105.54,129.63,103.08,120.78,103.08z"/>
	<path class="st0" d="M158,1C71.29,1,1,71.29,1,158s70.29,157,157,157s157-70.29,157-157S244.71,1,158,1z M202.79,170.64H91.56
		c1.99,10.07,6.36,17.99,13.12,23.74c6.75,5.76,15.49,8.63,26.23,8.63c17.71,0,31.54-6.2,41.5-18.59l25.57,30.21
		c-6.97,9.63-16.85,17.29-29.63,22.99s-26.54,8.55-41.26,8.55c-27.56,0-49.86-8.22-66.9-24.65c-17.05-16.44-25.57-37.82-25.57-64.17
		v-4.65c0-18.37,3.4-34.59,10.21-48.64c6.81-14.05,16.74-24.93,29.8-32.62c13.06-7.69,28.55-11.54,46.48-11.54
		c25.23,0,45.16,7.83,59.77,23.49c14.61,15.66,21.91,37.49,21.91,65.49V170.64z M265.98,236.8c-5.87,5.26-13.23,7.89-22.08,7.89
		c-8.96,0-16.35-2.66-22.16-7.97s-8.72-12.01-8.72-20.09c0-8.08,2.91-14.78,8.72-20.09s13.2-7.97,22.16-7.97
		c8.85,0,16.21,2.63,22.08,7.89c5.86,5.26,8.8,11.98,8.8,20.17C274.78,224.82,271.85,231.55,265.98,236.8z"/>
</g>
</svg>
