<?xml version="1.0" encoding="utf-8"?>
<!-- Generator: Adobe Illustrator 27.3.1, SVG Export Plug-In . SVG Version: 6.00 Build 0)  -->
<svg version="1.1" id="Layer_1" xmlns="http://www.w3.org/2000/svg" xmlns:xlink="http://www.w3.org/1999/xlink" x="0px" y="0px"
	 viewBox="0 0 316 316" style="enable-background:new 0 0 316 316;" xml:space="preserve">
<style type="text/css">
	.st0{fill:#14532D;}
</style>
<path class="st0" d="M120.8,103.1c-16.4,0-26.1,10.8-29.2,32.5H148v-4.3c0.2-9-2.1-15.9-6.8-20.8
	C136.4,105.5,129.6,103.1,120.8,103.1z"/>
<path class="st0" d="M158,1C71.3,1,1,71.3,1,158s70.3,157,157,157s157-70.3,157-157S244.7,1,158,1z M202.8,170.6H91.6
	c2,10.1,6.4,18,13.1,23.7c6.8,5.8,15.5,8.6,26.2,8.6c17.7,0,31.5-6.2,41.5-18.6l25.6,30.2c-7,9.6-16.9,17.3-29.6,23
	s-26.5,8.6-41.3,8.6c-27.6,0-49.9-8.2-66.9-24.6c-17-16.4-25.6-37.8-25.6-64.2v-4.6c0-18.4,3.4-34.6,10.2-48.6s16.7-24.9,29.8-32.6
	s28.6-11.5,46.5-11.5c25.2,0,45.2,7.8,59.8,23.5s21.9,37.5,21.9,65.5L202.8,170.6L202.8,170.6z M266,236.8
	c-5.9,5.3-13.2,7.9-22.1,7.9c-9,0-16.4-2.7-22.2-8s-8.7-12-8.7-20.1s2.9-14.8,8.7-20.1s13.2-8,22.2-8c8.9,0,16.2,2.6,22.1,7.9
	c5.9,5.3,8.8,12,8.8,20.2S271.9,231.6,266,236.8z"/>
</svg>
